# xmcd
#
# Track frame offsets: 
#        150
#        2084
#        29183
#        41584
#        65442
#        87671
#        96733
#        112929
#        128249
#        146488
#        161327
#
# Disc length: 2312 seconds
#
# Revision: 0
# Processed by: cddbd v1.5.2PL0 Copyright (c) Steve Scherf et al.
# Submitted via: ExactAudioCopy v1.0b1
#
DISCID=9909060b
DTITLE=Grajcar - Cimballitic
DYEAR=1900
DGENRE=
TTITLE0=20th Century Fox
TTITLE1=Bohemian Rhapsody
TTITLE2=What a Wonderful World
TTITLE3=Levaning on a Jet Plane
TTITLE4=Nothing Else Matters
TTITLE5=Rock Around the Clock
TTITLE6=Once Upon a Time in the West
TTITLE7=Mamma Mia
TTITLE8=Love Me Tender
TTITLE9=Vstávej
TTITLE10=Za horama dědina
EXTD=
EXTT0=
EXTT1=
EXTT2=
EXTT3=
EXTT4=
EXTT5=
EXTT6=
EXTT7=
EXTT8=
EXTT9=
EXTT10=
PLAYORDER=
